<svg xmlns="http://www.w3.org/2000/svg" width="36.885" height="35.909" viewBox="0 0 36.885 35.909">
  <g id="がま口財布のアイコン_円_" data-name="がま口財布のアイコン　（円）" transform="translate(-0.004 -6.78)">
    <path id="パス_35" data-name="パス 35" d="M30.563,24.743c-.007-.8-.014-1.736-.02-2.609,0-.769-.01-1.488-.016-2.028,0-.27,0-.5-.007-.661,0-.082,0-.149,0-.2l0-.07c0-.023,0-.034,0-.086v0a6.833,6.833,0,0,0-1.369-3.773,5.927,5.927,0,0,0-2.46-1.738,9.15,9.15,0,0,0-1.671-.466A4.139,4.139,0,0,0,18.45,8.12a4.14,4.14,0,0,0-6.56,5,8.694,8.694,0,0,0-2.063.617A5.561,5.561,0,0,0,7,16.492a8.017,8.017,0,0,0-.635,2.594v0c0,.059,0,.068-.007.1,0,.182-.01.715-.016,1.45-.009,1.1-.018,2.614-.024,3.859,0,.09,0,.176,0,.263C3.5,27.148.122,29.636.008,33.609c-.133,4.681,3.536,7.947,7.835,8.481a75.638,75.638,0,0,0,10.6.6,75.615,75.615,0,0,0,10.6-.6c4.3-.534,7.967-3.8,7.836-8.481C36.772,29.627,33.374,27.139,30.563,24.743Zm-1.7-5.482v0ZM19.434,11.9c.027-.111.046-.216.063-.315v0l.006-.03c.006-.043.014-.083.018-.126v0a3.968,3.968,0,0,0,.033-.494c0-.146-.009-.29-.023-.432h0l0-.02-.011-.072c-.015-.11-.029-.218-.053-.325v0l0-.026L19.445,10c-.027-.111-.054-.223-.088-.329v0l0-.009A2.485,2.485,0,1,1,22.992,12.9c-.165,0-.332-.009-.5-.009H19.982a2.454,2.454,0,0,1-.632-.7c.01-.034.023-.065.034-.1,0-.007,0-.011,0-.018.015-.052.028-.1.042-.158a.115.115,0,0,1,.006-.018Zm4,16.419v1.668H20l-.369.572v1.378h3.808v2.069H19.63v2.834H17.263V34.008H13.456V31.939h3.807V30.565l-.369-.576H13.456V27.907h2.1l-1.744-2.713h2.27l2.364,3.679,2.367-3.679h2.27l-1.744,2.713h2.1ZM27.251,21c-.544-1.176.651-4.472-5.108-4.472H14.751c-5.76,0-4.565,3.3-5.108,4.472a8.142,8.142,0,0,1-1.662,2.237c0-.563.007-1.135.011-1.664,0-.642.008-1.22.011-1.648,0-.213,0-.388.007-.513,0-.063,0-.11,0-.144v-.027a5.317,5.317,0,0,1,.914-2.767,4.074,4.074,0,0,1,1.592-1.234,8.52,8.52,0,0,1,3.17-.669.83.83,0,0,0,.4-1.533,2.488,2.488,0,1,1,3.591-3.108l.009.015c.007.02.012.038.02.056a2.7,2.7,0,0,1,.126.4v.011l0,.012c0,.006,0,.015,0,.023a2.47,2.47,0,0,1,.048.478,2.711,2.711,0,0,1-.019.288l-.018.11v0c-.011.07-.024.131-.036.187v0l-.029.106c-.016.054-.034.11-.055.169l-.045.117a2.514,2.514,0,0,1-.95,1.119l-.007.007a.69.69,0,0,0-.086.065c-.015.014-.03.025-.044.038a.787.787,0,0,0-.056.065c-.016.02-.033.038-.047.056s-.025.047-.038.07-.027.047-.037.07a.557.557,0,0,0-.023.07.646.646,0,0,0-.026.084.5.5,0,0,0-.008.06.838.838,0,0,0-.011.106v.009c0,.016,0,.034.006.052a.78.78,0,0,0,.011.1c0,.025.012.05.019.074a.749.749,0,0,0,.026.081.67.67,0,0,0,.041.081c.01.018.017.038.028.056a.027.027,0,0,1,.007.009.854.854,0,0,0,.056.07c.016.02.03.041.047.059s.036.029.055.045a.643.643,0,0,0,.069.056c.019.014.041.024.061.036s.052.029.078.041.048.016.073.025.053.018.081.025.042,0,.064.008a.919.919,0,0,0,.1.01h5.311c.24,0,.473.009.7.02a8.962,8.962,0,0,1,2.877.545,4.508,4.508,0,0,1,1.462.9,3.862,3.862,0,0,1,1.025,1.653,7.547,7.547,0,0,1,.3,1.571c0,.014,0,.054,0,.115.01.52.021,2.222.034,3.859A8.085,8.085,0,0,1,27.251,21Z" transform="translate(0)" fill="#be171b"/>
  </g>
</svg>
