<svg xmlns="http://www.w3.org/2000/svg" width="54.541" height="31.486" viewBox="0 0 54.541 31.486">
  <g id="メーターアイコン9" transform="translate(0 -108.214)">
    <path id="パス_41" data-name="パス 41" d="M52.4,124.869A27.275,27.275,0,0,0,0,135.485c0,.472.012.939.035,1.4H8.579V134.08H4.024a23.175,23.175,0,0,1,5.815-14.04l3.221,3.222,1.987-1.988-3.219-3.219a23.151,23.151,0,0,1,14.038-5.813v4.552h2.809v-4.556a23.185,23.185,0,0,1,14.043,5.815L39.5,121.274l1.985,1.988,3.221-3.219a23.66,23.66,0,0,1,1.884,2.423,23.148,23.148,0,0,1,3.93,11.614H45.965v2.809H54.5c.026-.466.037-.933.037-1.4A27.2,27.2,0,0,0,52.4,124.869Z" transform="translate(0 0)" fill="#be171b"/>
    <path id="パス_42" data-name="パス 42" d="M228.488,199.269a.361.361,0,0,0-.44.176l-8.03,13.217a4.218,4.218,0,1,0,4.273,2.006l4.364-14.956A.36.36,0,0,0,228.488,199.269Zm-7.815,19.658a2.107,2.107,0,1,1,2.106-2.106A2.106,2.106,0,0,1,220.672,218.927Z" transform="translate(-193.4 -81.334)" fill="#be171b"/>
  </g>
</svg>
