<svg xmlns="http://www.w3.org/2000/svg" width="48.025" height="31.112" viewBox="0 0 48.025 31.112">
  <g id="ステーキのアイコン" transform="translate(0 -90.155)">
    <path id="パス_36" data-name="パス 36" d="M48.016,105.436c-.146-4.554-4.162-7.968-9.794-8.316-11.337-.7-10.272-6.317-19.666-6.915-.529-.034-1.051-.05-1.563-.05-9.6,0-16.049,5.8-16.893,12.89-.051.431-.079.856-.091,1.277H0v4.955H.029c.3,6.278,5.011,11.184,12.668,11.4l21.063.588c6.531.182,12.824-4.2,14.056-9.779a8.713,8.713,0,0,0,.166-1.092h.044v-4.955Zm-2.62,1.59c-.954,4.324-6,7.841-11.243,7.841-.108,0-.216,0-.325,0l-5.276-.148-15.787-.44a10.738,10.738,0,0,1-8.113-3.42,9.589,9.589,0,0,1-2.092-7.517c.75-6.3,6.685-10.705,14.433-10.705.461,0,.934.015,1.406.045a12.894,12.894,0,0,1,7.542,2.774A21,21,0,0,0,38.07,99.593a8.58,8.58,0,0,1,6.431,2.969A5.3,5.3,0,0,1,45.4,107.026Z" transform="translate(0 0)" fill="#be171b"/>
    <path id="パス_37" data-name="パス 37" d="M202.705,186.182l-9.807,13,6.213.173,8.588-11.385A19.787,19.787,0,0,1,202.705,186.182Z" transform="translate(-174.804 -87.02)" fill="#be171b"/>
    <path id="パス_38" data-name="パス 38" d="M102.145,144.524a10.656,10.656,0,0,0-5.266-2.248L85.284,157.649a9.361,9.361,0,0,0,5.317,1.614l1.231.035,10.863-14.4C102.509,144.77,102.325,144.646,102.145,144.524Z" transform="translate(-77.284 -47.232)" fill="#be171b"/>
    <path id="パス_39" data-name="パス 39" d="M55.643,149.9a7.839,7.839,0,0,0,.775,4.631l9.989-13.245C60.562,141.722,56.21,145.142,55.643,149.9Z" transform="translate(-50.365 -46.339)" fill="#be171b"/>
    <path id="パス_40" data-name="パス 40" d="M306.421,210.716c-.413-.025-.811-.058-1.2-.1L296.94,221.6l5.578.155c.09,0,.18,0,.27,0,4.154,0,8.28-2.793,9.009-6.1a3.3,3.3,0,0,0-.541-2.813A6.465,6.465,0,0,0,306.421,210.716Z" transform="translate(-269.087 -109.165)" fill="#be171b"/>
  </g>
</svg>
